<?xml version="1.0" encoding="UTF-8"?>
<svg xmlns="http://www.w3.org/2000/svg" version="1.1" viewBox="0 0 168 48">
  <!-- Generator: Adobe Illustrator 29.6.0, SVG Export Plug-In . SVG Version: 2.1.1 Build 207)  -->
  <defs>
    <style>
      .st0 {
        stroke: #d3d7da;
      }

      .st0, .st1 {
        fill: none;
      }

      .st1 {
        stroke: #000;
        stroke-miterlimit: 10;
      }

      .st2 {
        fill: #2d2d2d;
      }
    </style>
  </defs>
  <g id="Layer_1">
    <path d="M44.98,35.12l-14.5-25.12-7.76,4.48,11.91,20.63h10.35Z"/>
    <path d="M31.17,35.12l-9.57-16.57-7.76,4.48,6.98,12.09h10.35Z"/>
    <path d="M12.74,27.1l4.63,8.02H7.02l-2.04-3.53,7.76-4.48Z"/>
    <g>
      <path d="M81.85,32.94c-3.76,0-6.87-3.04-6.87-6.72,0-1.77.72-3.47,2.01-4.73,1.29-1.25,3.04-1.96,4.86-1.96,1.4-.02,2.78.39,3.94,1.16v-1.02h3.24v12.98h-3.24v-.87c-1.16.76-2.53,1.17-3.94,1.16h0ZM78.13,26.22c.03,2.03,1.72,3.66,3.81,3.68,2.1,0,3.85-1.67,3.85-3.68-.03-2.05-1.74-3.71-3.85-3.72-2.1.03-3.79,1.69-3.81,3.73Z"/>
      <path d="M97.07,32.94c-2.53.1-4.91-1.15-6.21-3.27-1.3-2.12-1.3-4.75,0-6.87,1.3-2.12,3.68-3.37,6.21-3.27,1.39-.02,2.75.39,3.89,1.16v-5.44h3.28v17.39h-3.28v-.86c-1.15.75-2.51,1.15-3.89,1.16h0ZM93.31,26.22c0,2.02,1.75,3.68,3.85,3.68,2.07-.04,3.73-1.69,3.73-3.7s-1.66-3.66-3.73-3.7c-2.11.02-3.82,1.67-3.85,3.72Z"/>
      <path d="M109.15,19.67h-3.28v12.98h3.28v-12.98Z"/>
      <path d="M109.15,15.25h-3.28v3.21h3.28v-3.21Z"/>
    </g>
    <line class="st0" x1="61.48" y1="15" x2="61.48" y2="33"/>
  </g>
  <g id="Layer_2">
    <path class="st2" d="M132.84,20.55c-6.58-.21-10.09,13.16-1.41,12.04,5.16-1.02,8.34-11.09,1.57-12.04h-.16ZM130.88,31.24c-3.98-.15-3-7.67-.1-8.92,2.1-1.1,3.81,1.32,4.11,3.24.63,2.66-1.26,5.81-3.93,5.68h-.09Z"/>
    <g>
      <path class="st2" d="M158.79,20.25c.91,0,1.65.16,2.22.49.65.39,1.24.88,1.73,1.46l-1.8,1.23c-.21-.55-.55-1.06-.98-1.47-.36-.32-.83-.5-1.32-.49-.55.01-1.07.21-1.48.55-.52.41-.96.91-1.3,1.47-.4.66-.71,1.36-.91,2.1-.22.78-.34,1.59-.34,2.41,0,.95.13,1.62.38,2.03.26.41.67.61,1.25.61.56,0,1.25-.26,2.06-.78.86-.56,1.63-1.25,2.29-2.03l.1.74c-.43.75-.97,1.43-1.62,2.02-.62.57-1.34,1.05-2.11,1.41-.68.33-1.44.5-2.2.52-.52.01-1.03-.15-1.44-.46-.43-.34-.75-.78-.94-1.29-.24-.63-.35-1.29-.34-1.96,0-1.12.17-2.24.53-3.31.32-.98.82-1.91,1.46-2.73.58-.75,1.31-1.38,2.15-1.85.79-.44,1.7-.67,2.61-.67Z"/>
      <path class="st2" d="M160.3,32.54c-.62,0-1.05-.25-1.26-.74-.21-.5-.26-1.11-.15-1.85l2.1-12.92-1.43-.89.07-.43,3.81-.77.32.24-2.3,14.19c-.07.39-.07.78,0,1.17.04.27.29.47.57.45.14,0,.28,0,.42-.04.12-.02.22-.05.32-.08l.2.48c-.38.34-.8.62-1.26.85-.43.23-.92.35-1.41.35Z"/>
    </g>
    <path class="st2" d="M141.51,32.57c-.57.01-1.12-.19-1.53-.57-.44-.43-.74-.97-.86-1.56-.17-.75-.18-1.52-.05-2.27l.97-5.87-1.43-.89.07-.43,3.81-.77.32.24-1.24,7.58c-.13.82-.08,1.47.17,1.95.2.45.66.74,1.16.72.45,0,.89-.1,1.3-.28.5-.21.97-.49,1.39-.82.5-.38.97-.82,1.39-1.29l.35.63c-.49.73-1.07,1.39-1.73,1.97-.58.52-1.25.93-1.97,1.23-.66.28-1.38.42-2.1.43ZM148.01,32.53c-.63,0-1.05-.25-1.27-.74-.22-.5-.28-1.11-.17-1.85l1.24-7.62-1.43-.89.07-.43,3.81-.77.32.24-1.43,8.9c-.07.39-.06.78.01,1.17.04.27.3.47.58.45.14,0,.28,0,.42-.04.12-.02.22-.05.32-.08l.2.48c-.38.34-.8.62-1.26.85-.43.22-.91.34-1.4.35Z"/>
    <path class="st2" d="M122.09,32.66c-.62,0-1.05-.25-1.26-.74-.21-.5-.26-1.11-.15-1.85l2.1-12.92-1.43-.89.07-.43,3.81-.77.32.24-2.3,14.19c-.07.39-.07.78,0,1.17.04.27.29.47.57.45.14,0,.28,0,.42-.04.12-.02.22-.05.32-.08l.2.48c-.38.34-.8.62-1.26.85-.43.23-.92.35-1.41.35Z"/>
    <path class="st2" d="M114.56,32.6c-.76.02-1.52-.16-2.19-.52-.62-.35-1.12-.87-1.42-1.5-.35-.75-.52-1.56-.49-2.38,0-1.04.18-2.07.56-3.04.35-.9.86-1.74,1.51-2.46.61-.68,1.34-1.25,2.16-1.66,1.34-.66,2.9-.78,4.32-.33.53.19,1.02.47,1.44.84l-1.45,1.9h-.4c-.14-.49-.4-.94-.75-1.31-.34-.32-.79-.49-1.26-.47-.52,0-1.03.17-1.44.48-.47.35-.85.8-1.12,1.31-.33.59-.57,1.21-.73,1.86-.17.7-.26,1.42-.26,2.14,0,1.07.22,1.91.67,2.5.45.59,1.15.89,2.1.89.56,0,1.12-.12,1.63-.36.52-.24,1-.56,1.41-.96l.42.34c-.44.84-1.11,1.54-1.94,2.02-.84.48-1.79.73-2.77.72Z"/>
    <path class="st1" d="M138.59,21.4"/>
    <path class="st1" d="M136.86,21.41"/>
  </g>
</svg>